  0
SECTION
  2
HEADER
  9
$ACADVER
  1
AC1009
  9
$INSBASE
 10
0.000000
 20
0.000000
  9
$LIMMIN
 10
-80.000000
 20
-70.000000
  9
$LIMMAX
 10
1475.056800
 20
1475.454200
  9
$EXTMIN
 10
-80.000000
 20
-70.000000
  9
$EXTMAX
 10
1475.056800
 20
1475.454200
  9
$ATTMODE
 70
0
  9
$LUNITS
 70
2
  9
$LUPREC
 70
4
  9
$THICKNESS
 40
0.283200
  0
ENDSEC
  0
SECTION
  2
TABLES
  0
TABLE
  2
LTYPE
 70
1
  0
LTYPE
  3
Solid Line
  2
CONTINUOUS
 70
0
 72
65
 73
0
 40
0.000000
  0
ENDTAB
  0
TABLE
  2
LAYER
 70
17
  0
LAYER
  2
OUTLINE
 70
0
 62
120
  6
CONTINUOUS
  0
LAYER
  2
RESC
 70
0
 62
3
  6
CONTINUOUS
  0
LAYER
  2
SILKC
 70
0
 62
1
  6
CONTINUOUS
  0
LAYER
  2
OUTLINE
 70
0
 62
7
  6
CONTINUOUS
  0
LAYER
  2
TOP
 70
0
 62
132
  6
CONTINUOUS
  0
LAYER
  2
DRILL
 70
0
 62
9
  6
CONTINUOUS
  0
LAYER
  2
DRILL
 70
0
 62
9
  6
CONTINUOUS
  0
LAYER
  2
METC
 70
0
 62
150
  6
CONTINUOUS
  0
LAYER
  2
RESC
 70
0
 62
3
  6
CONTINUOUS
  0
LAYER
  2
SILKC
 70
0
 62
1
  6
CONTINUOUS
  0
LAYER
  2
TOP
 70
0
 62
132
  6
CONTINUOUS
  0
LAYER
  2
METC
 70
0
 62
5
  6
CONTINUOUS
  0
LAYER
  2
RESC
 70
0
 62
3
  6
CONTINUOUS
  0
LAYER
  2
SILKC
 70
0
 62
1
  6
CONTINUOUS
  0
LAYER
  2
TOP
 70
0
 62
132
  6
CONTINUOUS
  0
LAYER
  2
RESC
 70
0
 62
3
  6
CONTINUOUS
  0
LAYER
  2
METC
 70
0
 62
5
  6
CONTINUOUS
  0
ENDTAB
  0
TABLE
  2
STYLE
 70
1
  0
STYLE
  2
STANDARD
 70
0
 40
0.000000
 41
1.000000
 50
0.000000
 71
0
 42
0.200000
  3
txt
  0
ENDTAB
  0
ENDSEC
  0
SECTION
  2
BLOCKS
  0
BLOCK
  8
0
  2
FIGURE_CIRCLE
 70
0
 10
0.000000
 20
0.000000
  0
CIRCLE
  8
0
 10
0.000000
 20
0.000000
 40
0.500000
  0
ENDBLK
  0
BLOCK
  8
0
  2
FIGURE_SQUARE
 70
0
 10
0.000000
 20
0.000000
  0
POLYLINE
  8
0
 66
1
 70
1
 40
0.000000
 41
0.000000
 39
0.000000
  0
VERTEX
  8
0
 10
-0.500000
 20
-0.500000
 40
0.000000
 41
0.000000
 42
0.000000
  0
VERTEX
  8
0
 10
-0.500000
 20
0.500000
 40
0.000000
 41
0.000000
 42
0.000000
  0
VERTEX
  8
0
 10
0.500000
 20
0.500000
 40
0.000000
 41
0.000000
 42
0.000000
  0
VERTEX
  8
0
 10
0.500000
 20
-0.500000
 40
0.000000
 41
0.000000
 42
0.000000
  0
SEQEND
  0
ENDBLK
  0
BLOCK
  8
0
  2
FIGURE_HEX
 70
0
 10
0.000000
 20
0.000000
  0
POLYLINE
  8
0
 66
1
 70
1
 40
0.000000
 41
0.000000
 39
0.000000
  0
VERTEX
  8
0
 10
-0.500000
 20
0.000000
 40
0.000000
 41
0.000000
 42
0.000000
  0
VERTEX
  8
0
 10
-0.250000
 20
0.500000
 40
0.000000
 41
0.000000
 42
0.000000
  0
VERTEX
  8
0
 10
0.250000
 20
0.500000
 40
0.000000
 41
0.000000
 42
0.000000
  0
VERTEX
  8
0
 10
0.500000
 20
0.000000
 40
0.000000
 41
0.000000
 42
0.000000
  0
VERTEX
  8
0
 10
0.250000
 20
-0.500000
 40
0.000000
 41
0.000000
 42
0.000000
  0
VERTEX
  8
0
 10
-0.250000
 20
-0.500000
 40
0.000000
 41
0.000000
 42
0.000000
  0
SEQEND
  0
ENDBLK
  0
BLOCK
  8
0
  2
FIGURE_OCT
 70
0
 10
0.000000
 20
0.000000
  0
POLYLINE
  8
0
 66
1
 70
1
 40
0.000000
 41
0.000000
 39
0.000000
  0
VERTEX
  8
0
 10
-0.500000
 20
-0.207100
 40
0.000000
 41
0.000000
 42
0.000000
  0
VERTEX
  8
0
 10
-0.500000
 20
0.207100
 40
0.000000
 41
0.000000
 42
0.000000
  0
VERTEX
  8
0
 10
-0.207100
 20
0.500000
 40
0.000000
 41
0.000000
 42
0.000000
  0
VERTEX
  8
0
 10
0.207100
 20
0.500000
 40
0.000000
 41
0.000000
 42
0.000000
  0
VERTEX
  8
0
 10
0.500000
 20
0.207100
 40
0.000000
 41
0.000000
 42
0.000000
  0
VERTEX
  8
0
 10
0.500000
 20
-0.207100
 40
0.000000
 41
0.000000
 42
0.000000
  0
VERTEX
  8
0
 10
0.207100
 20
-0.500000
 40
0.000000
 41
0.000000
 42
0.000000
  0
VERTEX
  8
0
 10
-0.207100
 20
-0.500000
 40
0.000000
 41
0.000000
 42
0.000000
  0
SEQEND
  0
ENDBLK
  0
BLOCK
  8
0
  2
FIGURE_OBLONG
 70
0
 10
0.000000
 20
0.000000
  0
POLYLINE
  8
0
 66
1
 70
1
 40
0.000000
 41
0.000000
 39
0.000000
  0
VERTEX
  8
0
 10
-0.500000
 20
-0.125000
 40
0.000000
 41
0.000000
 42
0.000000
  0
VERTEX
  8
0
 10
-0.500000
 20
0.125000
 40
0.000000
 41
0.000000
 42
0.000000
  0
VERTEX
  8
0
 10
-0.416000
 20
0.375000
 40
0.000000
 41
0.000000
 42
0.000000
  0
VERTEX
  8
0
 10
-0.250000
 20
0.500000
 40
0.000000
 41
0.000000
 42
0.000000
  0
VERTEX
  8
0
 10
0.250000
 20
0.500000
 40
0.000000
 41
0.000000
 42
0.000000
  0
VERTEX
  8
0
 10
0.416000
 20
0.375000
 40
0.000000
 41
0.000000
 42
0.000000
  0
VERTEX
  8
0
 10
0.500000
 20
0.125000
 40
0.000000
 41
0.000000
 42
0.000000
  0
VERTEX
  8
0
 10
0.500000
 20
-0.125000
 40
0.000000
 41
0.000000
 42
0.000000
  0
VERTEX
  8
0
 10
0.416000
 20
-0.375000
 40
0.000000
 41
0.000000
 42
0.000000
  0
VERTEX
  8
0
 10
0.250000
 20
-0.500000
 40
0.000000
 41
0.000000
 42
0.000000
  0
VERTEX
  8
0
 10
-0.250000
 20
-0.500000
 40
0.000000
 41
0.000000
 42
0.000000
  0
VERTEX
  8
0
 10
-0.416000
 20
-0.375000
 40
0.000000
 41
0.000000
 42
0.000000
  0
SEQEND
  0
ENDBLK
  0
BLOCK
  8
0
  2
FIGURE_TRI
 70
0
 10
0.000000
 20
0.000000
  0
POLYLINE
  8
0
 66
1
 70
1
 40
0.000000
 41
0.000000
 39
0.000000
  0
VERTEX
  8
0
 10
-0.500000
 20
-0.500000
 40
0.000000
 41
0.000000
 42
0.000000
  0
VERTEX
  8
0
 10
0.000000
 20
0.500000
 40
0.000000
 41
0.000000
 42
0.000000
  0
VERTEX
  8
0
 10
0.500000
 20
-0.500000
 40
0.000000
 41
0.000000
 42
0.000000
  0
SEQEND
  0
ENDBLK
  0
BLOCK
  8
0
  2
FIGURE_CROSS
 70
0
 10
0.000000
 20
0.000000
  0
POLYLINE
  8
0
 66
1
 70
0
 40
0.000000
 41
0.000000
 39
0.000000
  0
VERTEX
  8
0
 10
-0.500000
 20
0.000000
 40
0.000000
 41
0.000000
 42
0.000000
  0
VERTEX
  8
0
 10
0.500000
 20
0.000000
 40
0.000000
 41
0.000000
 42
0.000000
  0
SEQEND
  0
POLYLINE
  8
0
 66
1
 70
0
 40
0.000000
 41
0.000000
 39
0.000000
  0
VERTEX
  8
0
 10
0.000000
 20
0.500000
 40
0.000000
 41
0.000000
 42
0.000000
  0
VERTEX
  8
0
 10
0.000000
 20
-0.500000
 40
0.000000
 41
0.000000
 42
0.000000
  0
SEQEND
  0
ENDBLK
  0
BLOCK
  8
0
  2
FIGURE_DIAMOND
 70
0
 10
0.000000
 20
0.000000
  0
POLYLINE
  8
0
 66
1
 70
1
 40
0.000000
 41
0.000000
 39
0.000000
  0
VERTEX
  8
0
 10
-0.500000
 20
0.000000
 40
0.000000
 41
0.000000
 42
0.000000
  0
VERTEX
  8
0
 10
0.000000
 20
0.500000
 40
0.000000
 41
0.000000
 42
0.000000
  0
VERTEX
  8
0
 10
0.500000
 20
0.000000
 40
0.000000
 41
0.000000
 42
0.000000
  0
VERTEX
  8
0
 10
0.000000
 20
-0.500000
 40
0.000000
 41
0.000000
 42
0.000000
  0
SEQEND
  0
ENDBLK
  0
ENDSEC
  0
SECTION
  2
ENTITIES
  0
POLYLINE
  8
TOP
 66
1
 70
1
 40
0.000000
 41
0.000000
 39
0.000000
  0
VERTEX
  8
TOP
 10
-9.665500
 20
2.258500
 40
0.000000
 41
0.000000
 42
0.000000
  0
VERTEX
  8
TOP
 10
-6.805400
 20
7.212300
 40
0.000000
 41
0.000000
 42
-0.267809
  0
VERTEX
  8
TOP
 10
-6.697200
 20
7.274800
 40
0.000000
 41
0.000000
 42
0.000000
  0
VERTEX
  8
TOP
 10
-6.663700
 20
7.274800
 40
0.000000
 41
0.000000
 42
0.000000
  0
VERTEX
  8
TOP
 10
-6.605800
 20
7.241400
 40
0.000000
 41
0.000000
 42
0.000000
  0
VERTEX
  8
TOP
 10
-6.568700
 20
7.177200
 40
0.000000
 41
0.000000
 42
1.000000
  0
VERTEX
  8
TOP
 10
-2.931200
 20
9.277200
 40
0.000000
 41
0.000000
 42
0.000000
  0
VERTEX
  8
TOP
 10
-2.951500
 20
9.312400
 40
0.000000
 41
0.000000
 42
-0.267955
  0
VERTEX
  8
TOP
 10
-2.951600
 20
9.437400
 40
0.000000
 41
0.000000
 42
0.000000
  0
VERTEX
  8
TOP
 10
-2.934800
 20
9.466500
 40
0.000000
 41
0.000000
 42
0.000000
  0
VERTEX
  8
TOP
 10
-2.876900
 20
9.499900
 40
0.000000
 41
0.000000
 42
0.000000
  0
VERTEX
  8
TOP
 10
2.843400
 20
9.499900
 40
0.000000
 41
0.000000
 42
-0.267683
  0
VERTEX
  8
TOP
 10
2.951600
 20
9.437500
 40
0.000000
 41
0.000000
 42
0.000000
  0
VERTEX
  8
TOP
 10
2.968300
 20
9.408500
 40
0.000000
 41
0.000000
 42
0.000000
  0
VERTEX
  8
TOP
 10
2.968400
 20
9.341600
 40
0.000000
 41
0.000000
 42
0.000000
  0
VERTEX
  8
TOP
 10
2.931300
 20
9.277200
 40
0.000000
 41
0.000000
 42
1.000000
  0
VERTEX
  8
TOP
 10
6.568700
 20
7.177000
 40
0.000000
 41
0.000000
 42
0.000000
  0
VERTEX
  8
TOP
 10
6.568800
 20
7.177200
 40
0.000000
 41
0.000000
 42
0.000000
  0
VERTEX
  8
TOP
 10
6.579700
 20
7.195900
 40
0.000000
 41
0.000000
 42
-0.267470
  0
VERTEX
  8
TOP
 10
6.687900
 20
7.258100
 40
0.000000
 41
0.000000
 42
0.000000
  0
VERTEX
  8
TOP
 10
6.721400
 20
7.258000
 40
0.000000
 41
0.000000
 42
0.000000
  0
VERTEX
  8
TOP
 10
6.779100
 20
7.224600
 40
0.000000
 41
0.000000
 42
0.000000
  0
VERTEX
  8
TOP
 10
9.629600
 20
2.287600
 40
0.000000
 41
0.000000
 42
-0.002059
  0
VERTEX
  8
TOP
 10
9.630100
 20
2.286700
 40
0.000000
 41
0.000000
 42
-0.568787
  0
VERTEX
  8
TOP
 10
9.523500
 20
2.100100
 40
0.000000
 41
0.000000
 42
0.000000
  0
VERTEX
  8
TOP
 10
9.500000
 20
2.100100
 40
0.000000
 41
0.000000
 42
0.378375
  0
VERTEX
  8
TOP
 10
7.416000
 20
0.259500
 40
0.000000
 41
0.000000
 42
0.000000
  0
VERTEX
  8
TOP
 10
7.410100
 20
0.212600
 40
0.000000
 41
0.000000
 42
0.000000
  0
VERTEX
  8
TOP
 10
7.339200
 20
0.150000
 40
0.000000
 41
0.000000
 42
0.000000
  0
VERTEX
  8
TOP
 10
-7.339300
 20
0.150000
 40
0.000000
 41
0.000000
 42
0.000000
  0
VERTEX
  8
TOP
 10
-7.410100
 20
0.212600
 40
0.000000
 41
0.000000
 42
0.000000
  0
VERTEX
  8
TOP
 10
-7.416000
 20
0.259600
 40
0.000000
 41
0.000000
 42
0.378353
  0
VERTEX
  8
TOP
 10
-9.499900
 20
2.100100
 40
0.000000
 41
0.000000
 42
0.000000
  0
VERTEX
  8
TOP
 10
-9.540500
 20
2.100100
 40
0.000000
 41
0.000000
 42
-0.267862
  0
VERTEX
  8
TOP
 10
-9.648700
 20
2.162600
 40
0.000000
 41
0.000000
 42
0.000000
  0
VERTEX
  8
TOP
 10
-9.665500
 20
2.191600
 40
0.000000
 41
0.000000
 42
0.000000
  0
SEQEND
  0
POLYLINE
  8
TOP
 66
1
 70
1
 40
0.000000
 41
0.000000
 39
0.000000
  0
VERTEX
  8
TOP
 10
-2.968300
 20
-9.341600
 40
0.000000
 41
0.000000
 42
0.000000
  0
VERTEX
  8
TOP
 10
-2.931200
 20
-9.277200
 40
0.000000
 41
0.000000
 42
1.000000
  0
VERTEX
  8
TOP
 10
-6.568700
 20
-7.177200
 40
0.000000
 41
0.000000
 42
0.000000
  0
VERTEX
  8
TOP
 10
-6.589100
 20
-7.212400
 40
0.000000
 41
0.000000
 42
-0.267837
  0
VERTEX
  8
TOP
 10
-6.697300
 20
-7.274900
 40
0.000000
 41
0.000000
 42
0.000000
  0
VERTEX
  8
TOP
 10
-6.730800
 20
-7.274900
 40
0.000000
 41
0.000000
 42
0.000000
  0
VERTEX
  8
TOP
 10
-6.788700
 20
-7.241400
 40
0.000000
 41
0.000000
 42
0.000000
  0
VERTEX
  8
TOP
 10
-9.648800
 20
-2.287600
 40
0.000000
 41
0.000000
 42
-0.001888
  0
VERTEX
  8
TOP
 10
-9.649300
 20
-2.286800
 40
0.000000
 41
0.000000
 42
-0.129712
  0
VERTEX
  8
TOP
 10
-9.665500
 20
-2.225100
 40
0.000000
 41
0.000000
 42
-0.414214
  0
VERTEX
  8
TOP
 10
-9.540500
 20
-2.100100
 40
0.000000
 41
0.000000
 42
0.000000
  0
VERTEX
  8
TOP
 10
-9.499900
 20
-2.100100
 40
0.000000
 41
0.000000
 42
0.378371
  0
VERTEX
  8
TOP
 10
-7.415900
 20
-0.259500
 40
0.000000
 41
0.000000
 42
0.000000
  0
VERTEX
  8
TOP
 10
-7.410100
 20
-0.212600
 40
0.000000
 41
0.000000
 42
0.000000
  0
VERTEX
  8
TOP
 10
-7.339200
 20
-0.150000
 40
0.000000
 41
0.000000
 42
0.000000
  0
VERTEX
  8
TOP
 10
7.339200
 20
-0.150000
 40
0.000000
 41
0.000000
 42
0.000000
  0
VERTEX
  8
TOP
 10
7.410100
 20
-0.212600
 40
0.000000
 41
0.000000
 42
0.000000
  0
VERTEX
  8
TOP
 10
7.416000
 20
-0.259500
 40
0.000000
 41
0.000000
 42
0.378375
  0
VERTEX
  8
TOP
 10
9.500000
 20
-2.100100
 40
0.000000
 41
0.000000
 42
0.000000
  0
VERTEX
  8
TOP
 10
9.540600
 20
-2.100100
 40
0.000000
 41
0.000000
 42
-0.267862
  0
VERTEX
  8
TOP
 10
9.648800
 20
-2.162600
 40
0.000000
 41
0.000000
 42
0.000000
  0
VERTEX
  8
TOP
 10
9.665600
 20
-2.191600
 40
0.000000
 41
0.000000
 42
0.000000
  0
VERTEX
  8
TOP
 10
9.665600
 20
-2.258500
 40
0.000000
 41
0.000000
 42
0.000000
  0
VERTEX
  8
TOP
 10
6.805500
 20
-7.212300
 40
0.000000
 41
0.000000
 42
-0.267809
  0
VERTEX
  8
TOP
 10
6.697300
 20
-7.274800
 40
0.000000
 41
0.000000
 42
0.000000
  0
VERTEX
  8
TOP
 10
6.663800
 20
-7.274800
 40
0.000000
 41
0.000000
 42
0.000000
  0
VERTEX
  8
TOP
 10
6.605900
 20
-7.241400
 40
0.000000
 41
0.000000
 42
0.000000
  0
VERTEX
  8
TOP
 10
6.568800
 20
-7.177200
 40
0.000000
 41
0.000000
 42
0.267949
  0
VERTEX
  8
TOP
 10
4.750100
 20
-6.127100
 40
0.000000
 41
0.000000
 42
0.000000
  0
VERTEX
  8
TOP
 10
4.750000
 20
-6.127100
 40
0.000000
 41
0.000000
 42
0.577334
  0
VERTEX
  8
TOP
 10
2.931300
 20
-9.277200
 40
0.000000
 41
0.000000
 42
0.000000
  0
VERTEX
  8
TOP
 10
2.951600
 20
-9.312400
 40
0.000000
 41
0.000000
 42
-0.267955
  0
VERTEX
  8
TOP
 10
2.951700
 20
-9.437400
 40
0.000000
 41
0.000000
 42
0.000000
  0
VERTEX
  8
TOP
 10
2.934900
 20
-9.466500
 40
0.000000
 41
0.000000
 42
0.000000
  0
VERTEX
  8
TOP
 10
2.877000
 20
-9.499900
 40
0.000000
 41
0.000000
 42
0.000000
  0
VERTEX
  8
TOP
 10
-2.843300
 20
-9.499900
 40
0.000000
 41
0.000000
 42
-0.267683
  0
VERTEX
  8
TOP
 10
-2.951500
 20
-9.437500
 40
0.000000
 41
0.000000
 42
0.000000
  0
VERTEX
  8
TOP
 10
-2.968200
 20
-9.408500
 40
0.000000
 41
0.000000
 42
0.000000
  0
SEQEND
  0
POLYLINE
  8
TOP
 66
1
 70
1
 40
0.000000
 41
0.000000
 39
0.000000
  0
VERTEX
  8
TOP
 10
-1.750000
 20
-1.400000
 40
0.000000
 41
0.000000
 42
0.000000
  0
VERTEX
  8
TOP
 10
-1.750000
 20
-0.850000
 40
0.000000
 41
0.000000
 42
0.000000
  0
VERTEX
  8
TOP
 10
-1.400000
 20
-0.850000
 40
0.000000
 41
0.000000
 42
0.000000
  0
VERTEX
  8
TOP
 10
-1.400000
 20
-0.150000
 40
0.000000
 41
0.000000
 42
0.000000
  0
VERTEX
  8
TOP
 10
1.400000
 20
-0.150000
 40
0.000000
 41
0.000000
 42
0.000000
  0
VERTEX
  8
TOP
 10
1.400000
 20
-0.850000
 40
0.000000
 41
0.000000
 42
0.000000
  0
VERTEX
  8
TOP
 10
1.750000
 20
-0.850000
 40
0.000000
 41
0.000000
 42
0.000000
  0
VERTEX
  8
TOP
 10
1.750000
 20
-1.400000
 40
0.000000
 41
0.000000
 42
0.000000
  0
SEQEND
  0
POLYLINE
  8
RESC
 66
1
 70
1
 40
0.000000
 41
0.000000
 39
0.000000
  0
VERTEX
  8
RESC
 10
-1.750000
 20
-1.400000
 40
0.000000
 41
0.000000
 42
0.000000
  0
VERTEX
  8
RESC
 10
-1.750000
 20
-0.850000
 40
0.000000
 41
0.000000
 42
0.000000
  0
VERTEX
  8
RESC
 10
-1.400000
 20
-0.850000
 40
0.000000
 41
0.000000
 42
0.000000
  0
VERTEX
  8
RESC
 10
-1.400000
 20
-0.150000
 40
0.000000
 41
0.000000
 42
0.000000
  0
VERTEX
  8
RESC
 10
1.400000
 20
-0.150000
 40
0.000000
 41
0.000000
 42
0.000000
  0
VERTEX
  8
RESC
 10
1.400000
 20
-0.850000
 40
0.000000
 41
0.000000
 42
0.000000
  0
VERTEX
  8
RESC
 10
1.750000
 20
-0.850000
 40
0.000000
 41
0.000000
 42
0.000000
  0
VERTEX
  8
RESC
 10
1.750000
 20
-1.400000
 40
0.000000
 41
0.000000
 42
0.000000
  0
SEQEND
  0
POLYLINE
  8
METC
 66
1
 70
1
 40
0.000000
 41
0.000000
 39
0.000000
  0
VERTEX
  8
METC
 10
-1.750000
 20
-1.400000
 40
0.000000
 41
0.000000
 42
0.000000
  0
VERTEX
  8
METC
 10
-1.750000
 20
-0.850000
 40
0.000000
 41
0.000000
 42
0.000000
  0
VERTEX
  8
METC
 10
-1.400000
 20
-0.850000
 40
0.000000
 41
0.000000
 42
0.000000
  0
VERTEX
  8
METC
 10
-1.400000
 20
-0.150000
 40
0.000000
 41
0.000000
 42
0.000000
  0
VERTEX
  8
METC
 10
1.400000
 20
-0.150000
 40
0.000000
 41
0.000000
 42
0.000000
  0
VERTEX
  8
METC
 10
1.400000
 20
-0.850000
 40
0.000000
 41
0.000000
 42
0.000000
  0
VERTEX
  8
METC
 10
1.750000
 20
-0.850000
 40
0.000000
 41
0.000000
 42
0.000000
  0
VERTEX
  8
METC
 10
1.750000
 20
-1.400000
 40
0.000000
 41
0.000000
 42
0.000000
  0
SEQEND
  0
POLYLINE
  8
TOP
 66
1
 70
1
 40
0.000000
 41
0.000000
 39
0.000000
  0
VERTEX
  8
TOP
 10
1.750000
 20
1.400000
 40
0.000000
 41
0.000000
 42
0.000000
  0
VERTEX
  8
TOP
 10
1.750000
 20
0.850000
 40
0.000000
 41
0.000000
 42
0.000000
  0
VERTEX
  8
TOP
 10
1.400000
 20
0.850000
 40
0.000000
 41
0.000000
 42
0.000000
  0
VERTEX
  8
TOP
 10
1.400000
 20
0.150000
 40
0.000000
 41
0.000000
 42
0.000000
  0
VERTEX
  8
TOP
 10
-1.400000
 20
0.150000
 40
0.000000
 41
0.000000
 42
0.000000
  0
VERTEX
  8
TOP
 10
-1.400000
 20
0.850000
 40
0.000000
 41
0.000000
 42
0.000000
  0
VERTEX
  8
TOP
 10
-1.750000
 20
0.850000
 40
0.000000
 41
0.000000
 42
0.000000
  0
VERTEX
  8
TOP
 10
-1.750000
 20
1.400000
 40
0.000000
 41
0.000000
 42
0.000000
  0
SEQEND
  0
POLYLINE
  8
RESC
 66
1
 70
1
 40
0.000000
 41
0.000000
 39
0.000000
  0
VERTEX
  8
RESC
 10
1.750000
 20
1.400000
 40
0.000000
 41
0.000000
 42
0.000000
  0
VERTEX
  8
RESC
 10
1.750000
 20
0.850000
 40
0.000000
 41
0.000000
 42
0.000000
  0
VERTEX
  8
RESC
 10
1.400000
 20
0.850000
 40
0.000000
 41
0.000000
 42
0.000000
  0
VERTEX
  8
RESC
 10
1.400000
 20
0.150000
 40
0.000000
 41
0.000000
 42
0.000000
  0
VERTEX
  8
RESC
 10
-1.400000
 20
0.150000
 40
0.000000
 41
0.000000
 42
0.000000
  0
VERTEX
  8
RESC
 10
-1.400000
 20
0.850000
 40
0.000000
 41
0.000000
 42
0.000000
  0
VERTEX
  8
RESC
 10
-1.750000
 20
0.850000
 40
0.000000
 41
0.000000
 42
0.000000
  0
VERTEX
  8
RESC
 10
-1.750000
 20
1.400000
 40
0.000000
 41
0.000000
 42
0.000000
  0
SEQEND
  0
POLYLINE
  8
METC
 66
1
 70
1
 40
0.000000
 41
0.000000
 39
0.000000
  0
VERTEX
  8
METC
 10
1.750000
 20
1.400000
 40
0.000000
 41
0.000000
 42
0.000000
  0
VERTEX
  8
METC
 10
1.750000
 20
0.850000
 40
0.000000
 41
0.000000
 42
0.000000
  0
VERTEX
  8
METC
 10
1.400000
 20
0.850000
 40
0.000000
 41
0.000000
 42
0.000000
  0
VERTEX
  8
METC
 10
1.400000
 20
0.150000
 40
0.000000
 41
0.000000
 42
0.000000
  0
VERTEX
  8
METC
 10
-1.400000
 20
0.150000
 40
0.000000
 41
0.000000
 42
0.000000
  0
VERTEX
  8
METC
 10
-1.400000
 20
0.850000
 40
0.000000
 41
0.000000
 42
0.000000
  0
VERTEX
  8
METC
 10
-1.750000
 20
0.850000
 40
0.000000
 41
0.000000
 42
0.000000
  0
VERTEX
  8
METC
 10
-1.750000
 20
1.400000
 40
0.000000
 41
0.000000
 42
0.000000
  0
SEQEND
  0
POLYLINE
  8
TOP
 66
1
 70
1
 40
0.000000
 41
0.000000
 39
0.000000
  0
VERTEX
  8
TOP
 10
-1.088800
 20
-7.858700
 40
0.000000
 41
0.000000
 42
0.000000
  0
VERTEX
  8
TOP
 10
-1.088800
 20
-5.258700
 40
0.000000
 41
0.000000
 42
0.000000
  0
VERTEX
  8
TOP
 10
1.111200
 20
-5.258700
 40
0.000000
 41
0.000000
 42
0.000000
  0
VERTEX
  8
TOP
 10
1.111200
 20
-7.858700
 40
0.000000
 41
0.000000
 42
0.000000
  0
SEQEND
  0
POLYLINE
  8
RESC
 66
1
 70
1
 40
0.000000
 41
0.000000
 39
0.000000
  0
VERTEX
  8
RESC
 10
-1.138800
 20
-7.908700
 40
0.000000
 41
0.000000
 42
0.000000
  0
VERTEX
  8
RESC
 10
-1.138800
 20
-5.208700
 40
0.000000
 41
0.000000
 42
0.000000
  0
VERTEX
  8
RESC
 10
1.161200
 20
-5.208700
 40
0.000000
 41
0.000000
 42
0.000000
  0
VERTEX
  8
RESC
 10
1.161200
 20
-7.908700
 40
0.000000
 41
0.000000
 42
0.000000
  0
SEQEND
  0
POLYLINE
  8
METC
 66
1
 70
1
 40
0.000000
 41
0.000000
 39
0.000000
  0
VERTEX
  8
METC
 10
-1.088800
 20
-7.858700
 40
0.000000
 41
0.000000
 42
0.000000
  0
VERTEX
  8
METC
 10
-1.088800
 20
-5.258700
 40
0.000000
 41
0.000000
 42
0.000000
  0
VERTEX
  8
METC
 10
1.111200
 20
-5.258700
 40
0.000000
 41
0.000000
 42
0.000000
  0
VERTEX
  8
METC
 10
1.111200
 20
-7.858700
 40
0.000000
 41
0.000000
 42
0.000000
  0
SEQEND
  0
POLYLINE
  8
TOP
 66
1
 70
1
 40
0.000000
 41
0.000000
 39
0.000000
  0
VERTEX
  8
TOP
 10
5.570767
 20
-2.166772
 40
0.000000
 41
0.000000
 42
0.000000
  0
VERTEX
  8
TOP
 10
7.822433
 20
-3.466772
 40
0.000000
 41
0.000000
 42
0.000000
  0
VERTEX
  8
TOP
 10
6.722433
 20
-5.372028
 40
0.000000
 41
0.000000
 42
0.000000
  0
VERTEX
  8
TOP
 10
4.470767
 20
-4.072028
 40
0.000000
 41
0.000000
 42
0.000000
  0
SEQEND
  0
POLYLINE
  8
RESC
 66
1
 70
1
 40
0.000000
 41
0.000000
 39
0.000000
  0
VERTEX
  8
RESC
 10
5.552466
 20
-2.098471
 40
0.000000
 41
0.000000
 42
0.000000
  0
VERTEX
  8
RESC
 10
7.890734
 20
-3.448471
 40
0.000000
 41
0.000000
 42
0.000000
  0
VERTEX
  8
RESC
 10
6.740734
 20
-5.440329
 40
0.000000
 41
0.000000
 42
0.000000
  0
VERTEX
  8
RESC
 10
4.402466
 20
-4.090329
 40
0.000000
 41
0.000000
 42
0.000000
  0
SEQEND
  0
POLYLINE
  8
METC
 66
1
 70
1
 40
0.000000
 41
0.000000
 39
0.000000
  0
VERTEX
  8
METC
 10
5.570767
 20
-2.166772
 40
0.000000
 41
0.000000
 42
0.000000
  0
VERTEX
  8
METC
 10
7.822433
 20
-3.466772
 40
0.000000
 41
0.000000
 42
0.000000
  0
VERTEX
  8
METC
 10
6.722433
 20
-5.372028
 40
0.000000
 41
0.000000
 42
0.000000
  0
VERTEX
  8
METC
 10
4.470767
 20
-4.072028
 40
0.000000
 41
0.000000
 42
0.000000
  0
SEQEND
  0
POLYLINE
  8
TOP
 66
1
 70
1
 40
0.000000
 41
0.000000
 39
0.000000
  0
VERTEX
  8
TOP
 10
-4.448362
 20
-4.071999
 40
0.000000
 41
0.000000
 42
0.000000
  0
VERTEX
  8
TOP
 10
-6.700005
 20
-5.372038
 40
0.000000
 41
0.000000
 42
0.000000
  0
VERTEX
  8
TOP
 10
-7.800038
 20
-3.466801
 40
0.000000
 41
0.000000
 42
0.000000
  0
VERTEX
  8
TOP
 10
-5.548395
 20
-2.166762
 40
0.000000
 41
0.000000
 42
0.000000
  0
SEQEND
  0
POLYLINE
  8
RESC
 66
1
 70
1
 40
0.000000
 41
0.000000
 39
0.000000
  0
VERTEX
  8
RESC
 10
-4.380060
 20
-4.090299
 40
0.000000
 41
0.000000
 42
0.000000
  0
VERTEX
  8
RESC
 10
-6.718305
 20
-5.440340
 40
0.000000
 41
0.000000
 42
0.000000
  0
VERTEX
  8
RESC
 10
-7.868340
 20
-3.448501
 40
0.000000
 41
0.000000
 42
0.000000
  0
VERTEX
  8
RESC
 10
-5.530095
 20
-2.098460
 40
0.000000
 41
0.000000
 42
0.000000
  0
SEQEND
  0
POLYLINE
  8
METC
 66
1
 70
1
 40
0.000000
 41
0.000000
 39
0.000000
  0
VERTEX
  8
METC
 10
-4.448362
 20
-4.071999
 40
0.000000
 41
0.000000
 42
0.000000
  0
VERTEX
  8
METC
 10
-6.700005
 20
-5.372038
 40
0.000000
 41
0.000000
 42
0.000000
  0
VERTEX
  8
METC
 10
-7.800038
 20
-3.466801
 40
0.000000
 41
0.000000
 42
0.000000
  0
VERTEX
  8
METC
 10
-5.548395
 20
-2.166762
 40
0.000000
 41
0.000000
 42
0.000000
  0
SEQEND
  0
POLYLINE
  8
TOP
 66
1
 70
1
 40
0.000000
 41
0.000000
 39
0.000000
  0
VERTEX
  8
TOP
 10
4.470767
 20
4.075828
 40
0.000000
 41
0.000000
 42
0.000000
  0
VERTEX
  8
TOP
 10
6.722433
 20
5.375828
 40
0.000000
 41
0.000000
 42
0.000000
  0
VERTEX
  8
TOP
 10
7.822433
 20
3.470572
 40
0.000000
 41
0.000000
 42
0.000000
  0
VERTEX
  8
TOP
 10
5.570767
 20
2.170572
 40
0.000000
 41
0.000000
 42
0.000000
  0
SEQEND
  0
POLYLINE
  8
RESC
 66
1
 70
1
 40
0.000000
 41
0.000000
 39
0.000000
  0
VERTEX
  8
RESC
 10
4.402466
 20
4.094129
 40
0.000000
 41
0.000000
 42
0.000000
  0
VERTEX
  8
RESC
 10
6.740734
 20
5.444129
 40
0.000000
 41
0.000000
 42
0.000000
  0
VERTEX
  8
RESC
 10
7.890734
 20
3.452271
 40
0.000000
 41
0.000000
 42
0.000000
  0
VERTEX
  8
RESC
 10
5.552466
 20
2.102271
 40
0.000000
 41
0.000000
 42
0.000000
  0
SEQEND
  0
POLYLINE
  8
METC
 66
1
 70
1
 40
0.000000
 41
0.000000
 39
0.000000
  0
VERTEX
  8
METC
 10
4.470767
 20
4.075828
 40
0.000000
 41
0.000000
 42
0.000000
  0
VERTEX
  8
METC
 10
6.722433
 20
5.375828
 40
0.000000
 41
0.000000
 42
0.000000
  0
VERTEX
  8
METC
 10
7.822433
 20
3.470572
 40
0.000000
 41
0.000000
 42
0.000000
  0
VERTEX
  8
METC
 10
5.570767
 20
2.170572
 40
0.000000
 41
0.000000
 42
0.000000
  0
SEQEND
  0
POLYLINE
  8
TOP
 66
1
 70
1
 40
0.000000
 41
0.000000
 39
0.000000
  0
VERTEX
  8
TOP
 10
-1.088800
 20
5.262600
 40
0.000000
 41
0.000000
 42
0.000000
  0
VERTEX
  8
TOP
 10
-1.088800
 20
7.862600
 40
0.000000
 41
0.000000
 42
0.000000
  0
VERTEX
  8
TOP
 10
1.111200
 20
7.862600
 40
0.000000
 41
0.000000
 42
0.000000
  0
VERTEX
  8
TOP
 10
1.111200
 20
5.262600
 40
0.000000
 41
0.000000
 42
0.000000
  0
SEQEND
  0
POLYLINE
  8
RESC
 66
1
 70
1
 40
0.000000
 41
0.000000
 39
0.000000
  0
VERTEX
  8
RESC
 10
-1.138800
 20
5.212600
 40
0.000000
 41
0.000000
 42
0.000000
  0
VERTEX
  8
RESC
 10
-1.138800
 20
7.912600
 40
0.000000
 41
0.000000
 42
0.000000
  0
VERTEX
  8
RESC
 10
1.161200
 20
7.912600
 40
0.000000
 41
0.000000
 42
0.000000
  0
VERTEX
  8
RESC
 10
1.161200
 20
5.212600
 40
0.000000
 41
0.000000
 42
0.000000
  0
SEQEND
  0
POLYLINE
  8
METC
 66
1
 70
1
 40
0.000000
 41
0.000000
 39
0.000000
  0
VERTEX
  8
METC
 10
-1.088800
 20
5.262600
 40
0.000000
 41
0.000000
 42
0.000000
  0
VERTEX
  8
METC
 10
-1.088800
 20
7.862600
 40
0.000000
 41
0.000000
 42
0.000000
  0
VERTEX
  8
METC
 10
1.111200
 20
7.862600
 40
0.000000
 41
0.000000
 42
0.000000
  0
VERTEX
  8
METC
 10
1.111200
 20
5.262600
 40
0.000000
 41
0.000000
 42
0.000000
  0
SEQEND
  0
POLYLINE
  8
TOP
 66
1
 70
1
 40
0.000000
 41
0.000000
 39
0.000000
  0
VERTEX
  8
TOP
 10
-5.548395
 20
2.170562
 40
0.000000
 41
0.000000
 42
0.000000
  0
VERTEX
  8
TOP
 10
-7.800038
 20
3.470601
 40
0.000000
 41
0.000000
 42
0.000000
  0
VERTEX
  8
TOP
 10
-6.700005
 20
5.375838
 40
0.000000
 41
0.000000
 42
0.000000
  0
VERTEX
  8
TOP
 10
-4.448362
 20
4.075799
 40
0.000000
 41
0.000000
 42
0.000000
  0
SEQEND
  0
POLYLINE
  8
RESC
 66
1
 70
1
 40
0.000000
 41
0.000000
 39
0.000000
  0
VERTEX
  8
RESC
 10
-5.530095
 20
2.102260
 40
0.000000
 41
0.000000
 42
0.000000
  0
VERTEX
  8
RESC
 10
-7.868340
 20
3.452301
 40
0.000000
 41
0.000000
 42
0.000000
  0
VERTEX
  8
RESC
 10
-6.718305
 20
5.444140
 40
0.000000
 41
0.000000
 42
0.000000
  0
VERTEX
  8
RESC
 10
-4.380060
 20
4.094099
 40
0.000000
 41
0.000000
 42
0.000000
  0
SEQEND
  0
POLYLINE
  8
METC
 66
1
 70
1
 40
0.000000
 41
0.000000
 39
0.000000
  0
VERTEX
  8
METC
 10
-5.548395
 20
2.170562
 40
0.000000
 41
0.000000
 42
0.000000
  0
VERTEX
  8
METC
 10
-7.800038
 20
3.470601
 40
0.000000
 41
0.000000
 42
0.000000
  0
VERTEX
  8
METC
 10
-6.700005
 20
5.375838
 40
0.000000
 41
0.000000
 42
0.000000
  0
VERTEX
  8
METC
 10
-4.448362
 20
4.075799
 40
0.000000
 41
0.000000
 42
0.000000
  0
SEQEND
  0
POLYLINE
  8
SILKC
 66
1
 70
0
 40
0.000000
 41
0.000000
 39
0.000000
  0
VERTEX
  8
SILKC
 10
-0.250000
 20
8.750000
 40
0.150000
 41
0.150000
 42
0.000000
  0
VERTEX
  8
SILKC
 10
0.250000
 20
8.750000
 40
0.150000
 41
0.150000
 42
0.000000
  0
SEQEND
  0
POLYLINE
  8
SILKC
 66
1
 70
0
 40
0.000000
 41
0.000000
 39
0.000000
  0
VERTEX
  8
SILKC
 10
-4.250000
 20
2.750000
 40
0.150000
 41
0.150000
 42
0.000000
  0
VERTEX
  8
SILKC
 10
-3.750000
 20
2.750000
 40
0.150000
 41
0.150000
 42
0.000000
  0
SEQEND
  0
POLYLINE
  8
SILKC
 66
1
 70
0
 40
0.000000
 41
0.000000
 39
0.000000
  0
VERTEX
  8
SILKC
 10
3.000000
 20
3.000000
 40
0.150000
 41
0.150000
 42
0.000000
  0
VERTEX
  8
SILKC
 10
3.500000
 20
3.000000
 40
0.150000
 41
0.150000
 42
0.000000
  0
SEQEND
  0
POLYLINE
  8
SILKC
 66
1
 70
0
 40
0.000000
 41
0.000000
 39
0.000000
  0
VERTEX
  8
SILKC
 10
-4.750000
 20
-5.000000
 40
0.150000
 41
0.150000
 42
0.000000
  0
VERTEX
  8
SILKC
 10
-4.250000
 20
-5.000000
 40
0.150000
 41
0.150000
 42
0.000000
  0
SEQEND
  0
POLYLINE
  8
SILKC
 66
1
 70
0
 40
0.000000
 41
0.000000
 39
0.000000
  0
VERTEX
  8
SILKC
 10
-4.500000
 20
-4.750000
 40
0.150000
 41
0.150000
 42
0.000000
  0
VERTEX
  8
SILKC
 10
-4.500000
 20
-5.250000
 40
0.150000
 41
0.150000
 42
0.000000
  0
SEQEND
  0
POLYLINE
  8
SILKC
 66
1
 70
0
 40
0.000000
 41
0.000000
 39
0.000000
  0
VERTEX
  8
SILKC
 10
4.500000
 20
-5.250000
 40
0.150000
 41
0.150000
 42
0.000000
  0
VERTEX
  8
SILKC
 10
5.000000
 20
-5.250000
 40
0.150000
 41
0.150000
 42
0.000000
  0
SEQEND
  0
POLYLINE
  8
SILKC
 66
1
 70
0
 40
0.000000
 41
0.000000
 39
0.000000
  0
VERTEX
  8
SILKC
 10
4.750000
 20
-5.000000
 40
0.150000
 41
0.150000
 42
0.000000
  0
VERTEX
  8
SILKC
 10
4.750000
 20
-5.500000
 40
0.150000
 41
0.150000
 42
0.000000
  0
SEQEND
  0
POLYLINE
  8
SILKC
 66
1
 70
0
 40
0.000000
 41
0.000000
 39
0.000000
  0
VERTEX
  8
SILKC
 10
0.000000
 20
-8.250000
 40
0.150000
 41
0.150000
 42
0.000000
  0
VERTEX
  8
SILKC
 10
0.000000
 20
-8.750000
 40
0.150000
 41
0.150000
 42
0.000000
  0
SEQEND
  0
POLYLINE
  8
SILKC
 66
1
 70
0
 40
0.000000
 41
0.000000
 39
0.000000
  0
VERTEX
  8
SILKC
 10
-0.250000
 20
-8.500000
 40
0.150000
 41
0.150000
 42
0.000000
  0
VERTEX
  8
SILKC
 10
0.250000
 20
-8.500000
 40
0.150000
 41
0.150000
 42
0.000000
  0
SEQEND
  0
POLYLINE
  8
OUTLINE
 66
1
 70
0
 40
0.000000
 41
0.000000
 39
0.000000
  0
VERTEX
  8
OUTLINE
 10
-6.697200
 20
-8.400000
 40
0.100000
 41
0.100000
 42
0.000000
  0
VERTEX
  8
OUTLINE
 10
-10.623200
 20
-1.600000
 40
0.100000
 41
0.100000
 42
0.000000
  0
SEQEND
  0
POLYLINE
  8
OUTLINE
 66
1
 70
0
 40
0.000000
 41
0.000000
 39
0.000000
  0
VERTEX
  8
OUTLINE
 10
-9.500000
 20
-1.600000
 40
0.100000
 41
0.100000
 42
1.000017
  0
VERTEX
  8
OUTLINE
 10
-9.500000
 20
1.600000
 40
0.100000
 41
0.100000
 42
0.000000
  0
SEQEND
  0
POLYLINE
  8
OUTLINE
 66
1
 70
0
 40
0.000000
 41
0.000000
 39
0.000000
  0
VERTEX
  8
OUTLINE
 10
-10.623200
 20
-1.600000
 40
0.100000
 41
0.100000
 42
0.000000
  0
VERTEX
  8
OUTLINE
 10
-9.500000
 20
-1.600000
 40
0.100000
 41
0.100000
 42
0.000000
  0
SEQEND
  0
POLYLINE
  8
OUTLINE
 66
1
 70
0
 40
0.000000
 41
0.000000
 39
0.000000
  0
VERTEX
  8
OUTLINE
 10
-10.623200
 20
1.600000
 40
0.100000
 41
0.100000
 42
0.000000
  0
VERTEX
  8
OUTLINE
 10
-6.697200
 20
8.400000
 40
0.100000
 41
0.100000
 42
0.000000
  0
SEQEND
  0
POLYLINE
  8
OUTLINE
 66
1
 70
0
 40
0.000000
 41
0.000000
 39
0.000000
  0
VERTEX
  8
OUTLINE
 10
-10.623200
 20
1.600000
 40
0.100000
 41
0.100000
 42
0.000000
  0
VERTEX
  8
OUTLINE
 10
-9.500000
 20
1.600000
 40
0.100000
 41
0.100000
 42
0.000000
  0
SEQEND
  0
POLYLINE
  8
OUTLINE
 66
1
 70
0
 40
0.000000
 41
0.000000
 39
0.000000
  0
VERTEX
  8
OUTLINE
 10
-3.925900
 20
-10.000000
 40
0.100000
 41
0.100000
 42
0.000000
  0
VERTEX
  8
OUTLINE
 10
-3.364300
 20
-9.027200
 40
0.100000
 41
0.100000
 42
0.000000
  0
SEQEND
  0
POLYLINE
  8
OUTLINE
 66
1
 70
0
 40
0.000000
 41
0.000000
 39
0.000000
  0
VERTEX
  8
OUTLINE
 10
-3.925900
 20
-10.000000
 40
0.100000
 41
0.100000
 42
0.000000
  0
VERTEX
  8
OUTLINE
 10
3.926000
 20
-10.000000
 40
0.100000
 41
0.100000
 42
0.000000
  0
SEQEND
  0
POLYLINE
  8
OUTLINE
 66
1
 70
0
 40
0.000000
 41
0.000000
 39
0.000000
  0
VERTEX
  8
OUTLINE
 10
-3.364300
 20
-9.027200
 40
0.100000
 41
0.100000
 42
1.000000
  0
VERTEX
  8
OUTLINE
 10
-6.135600
 20
-7.427200
 40
0.100000
 41
0.100000
 42
0.000000
  0
SEQEND
  0
POLYLINE
  8
OUTLINE
 66
1
 70
0
 40
0.000000
 41
0.000000
 39
0.000000
  0
VERTEX
  8
OUTLINE
 10
-6.697200
 20
-8.400000
 40
0.100000
 41
0.100000
 42
0.000000
  0
VERTEX
  8
OUTLINE
 10
-6.135600
 20
-7.427200
 40
0.100000
 41
0.100000
 42
0.000000
  0
SEQEND
  0
POLYLINE
  8
OUTLINE
 66
1
 70
0
 40
0.000000
 41
0.000000
 39
0.000000
  0
VERTEX
  8
OUTLINE
 10
-6.135600
 20
7.427200
 40
0.100000
 41
0.100000
 42
1.000000
  0
VERTEX
  8
OUTLINE
 10
-3.364300
 20
9.027200
 40
0.100000
 41
0.100000
 42
0.000000
  0
SEQEND
  0
POLYLINE
  8
OUTLINE
 66
1
 70
0
 40
0.000000
 41
0.000000
 39
0.000000
  0
VERTEX
  8
OUTLINE
 10
-6.697200
 20
8.400000
 40
0.100000
 41
0.100000
 42
0.000000
  0
VERTEX
  8
OUTLINE
 10
-6.135600
 20
7.427200
 40
0.100000
 41
0.100000
 42
0.000000
  0
SEQEND
  0
POLYLINE
  8
OUTLINE
 66
1
 70
0
 40
0.000000
 41
0.000000
 39
0.000000
  0
VERTEX
  8
OUTLINE
 10
-3.925900
 20
10.000000
 40
0.100000
 41
0.100000
 42
0.000000
  0
VERTEX
  8
OUTLINE
 10
-3.364300
 20
9.027200
 40
0.100000
 41
0.100000
 42
0.000000
  0
SEQEND
  0
POLYLINE
  8
OUTLINE
 66
1
 70
0
 40
0.000000
 41
0.000000
 39
0.000000
  0
VERTEX
  8
OUTLINE
 10
-3.925900
 20
10.000000
 40
0.100000
 41
0.100000
 42
0.000000
  0
VERTEX
  8
OUTLINE
 10
3.926000
 20
10.000000
 40
0.100000
 41
0.100000
 42
0.000000
  0
SEQEND
  0
POLYLINE
  8
OUTLINE
 66
1
 70
0
 40
0.000000
 41
0.000000
 39
0.000000
  0
VERTEX
  8
OUTLINE
 10
3.926000
 20
-10.000000
 40
0.100000
 41
0.100000
 42
0.000000
  0
VERTEX
  8
OUTLINE
 10
3.364400
 20
-9.027200
 40
0.100000
 41
0.100000
 42
0.000000
  0
SEQEND
  0
POLYLINE
  8
OUTLINE
 66
1
 70
0
 40
0.000000
 41
0.000000
 39
0.000000
  0
VERTEX
  8
OUTLINE
 10
6.135700
 20
-7.427200
 40
0.100000
 41
0.100000
 42
1.000000
  0
VERTEX
  8
OUTLINE
 10
3.364400
 20
-9.027200
 40
0.100000
 41
0.100000
 42
0.000000
  0
SEQEND
  0
POLYLINE
  8
OUTLINE
 66
1
 70
0
 40
0.000000
 41
0.000000
 39
0.000000
  0
VERTEX
  8
OUTLINE
 10
6.697300
 20
-8.400000
 40
0.100000
 41
0.100000
 42
0.000000
  0
VERTEX
  8
OUTLINE
 10
6.135700
 20
-7.427200
 40
0.100000
 41
0.100000
 42
0.000000
  0
SEQEND
  0
POLYLINE
  8
OUTLINE
 66
1
 70
0
 40
0.000000
 41
0.000000
 39
0.000000
  0
VERTEX
  8
OUTLINE
 10
6.697300
 20
-8.400000
 40
0.100000
 41
0.100000
 42
0.000000
  0
VERTEX
  8
OUTLINE
 10
10.623300
 20
-1.600000
 40
0.100000
 41
0.100000
 42
0.000000
  0
SEQEND
  0
POLYLINE
  8
OUTLINE
 66
1
 70
0
 40
0.000000
 41
0.000000
 39
0.000000
  0
VERTEX
  8
OUTLINE
 10
3.364400
 20
9.027200
 40
0.100000
 41
0.100000
 42
1.000000
  0
VERTEX
  8
OUTLINE
 10
6.135700
 20
7.427200
 40
0.100000
 41
0.100000
 42
0.000000
  0
SEQEND
  0
POLYLINE
  8
OUTLINE
 66
1
 70
0
 40
0.000000
 41
0.000000
 39
0.000000
  0
VERTEX
  8
OUTLINE
 10
3.926000
 20
10.000000
 40
0.100000
 41
0.100000
 42
0.000000
  0
VERTEX
  8
OUTLINE
 10
3.364400
 20
9.027200
 40
0.100000
 41
0.100000
 42
0.000000
  0
SEQEND
  0
POLYLINE
  8
OUTLINE
 66
1
 70
0
 40
0.000000
 41
0.000000
 39
0.000000
  0
VERTEX
  8
OUTLINE
 10
6.697300
 20
8.400000
 40
0.100000
 41
0.100000
 42
0.000000
  0
VERTEX
  8
OUTLINE
 10
6.135700
 20
7.427200
 40
0.100000
 41
0.100000
 42
0.000000
  0
SEQEND
  0
POLYLINE
  8
OUTLINE
 66
1
 70
0
 40
0.000000
 41
0.000000
 39
0.000000
  0
VERTEX
  8
OUTLINE
 10
10.623300
 20
1.600000
 40
0.100000
 41
0.100000
 42
0.000000
  0
VERTEX
  8
OUTLINE
 10
6.697300
 20
8.400000
 40
0.100000
 41
0.100000
 42
0.000000
  0
SEQEND
  0
POLYLINE
  8
OUTLINE
 66
1
 70
0
 40
0.000000
 41
0.000000
 39
0.000000
  0
VERTEX
  8
OUTLINE
 10
9.500000
 20
1.600000
 40
0.100000
 41
0.100000
 42
0.999983
  0
VERTEX
  8
OUTLINE
 10
9.500000
 20
-1.600000
 40
0.100000
 41
0.100000
 42
0.000000
  0
SEQEND
  0
POLYLINE
  8
OUTLINE
 66
1
 70
0
 40
0.000000
 41
0.000000
 39
0.000000
  0
VERTEX
  8
OUTLINE
 10
10.623300
 20
1.600000
 40
0.100000
 41
0.100000
 42
0.000000
  0
VERTEX
  8
OUTLINE
 10
9.500000
 20
1.600000
 40
0.100000
 41
0.100000
 42
0.000000
  0
SEQEND
  0
POLYLINE
  8
OUTLINE
 66
1
 70
0
 40
0.000000
 41
0.000000
 39
0.000000
  0
VERTEX
  8
OUTLINE
 10
10.623300
 20
-1.600000
 40
0.100000
 41
0.100000
 42
0.000000
  0
VERTEX
  8
OUTLINE
 10
9.500000
 20
-1.600000
 40
0.100000
 41
0.100000
 42
0.000000
  0
SEQEND
  0
POLYLINE
  8
METC
 66
1
 70
1
 40
0.000000
 41
0.000000
 39
0.000000
  0
VERTEX
  8
METC
 10
-2.211000
 20
-1.500000
 40
0.000000
 41
0.000000
 42
1.000000
  0
VERTEX
  8
METC
 10
-3.211200
 20
-1.500000
 40
0.000000
 41
0.000000
 42
1.000000
  0
SEQEND
  0
POLYLINE
  8
RESC
 66
1
 70
1
 40
0.000000
 41
0.000000
 39
0.000000
  0
VERTEX
  8
RESC
 10
-2.211000
 20
-1.500000
 40
0.000000
 41
0.000000
 42
1.000000
  0
VERTEX
  8
RESC
 10
-3.211200
 20
-1.500000
 40
0.000000
 41
0.000000
 42
1.000000
  0
SEQEND
  0
POLYLINE
  8
OUTLINE
 66
1
 70
1
 40
0.000000
 41
0.000000
 39
0.000000
  0
VERTEX
  8
OUTLINE
 10
-10.623200
 20
-1.600000
 40
0.000000
 41
0.000000
 42
0.000000
  0
VERTEX
  8
OUTLINE
 10
-6.697200
 20
-8.400000
 40
0.000000
 41
0.000000
 42
0.000000
  0
VERTEX
  8
OUTLINE
 10
-6.135600
 20
-7.427200
 40
0.000000
 41
0.000000
 42
-1.000000
  0
VERTEX
  8
OUTLINE
 10
-3.364300
 20
-9.027200
 40
0.000000
 41
0.000000
 42
0.000000
  0
VERTEX
  8
OUTLINE
 10
-3.925900
 20
-10.000000
 40
0.000000
 41
0.000000
 42
0.000000
  0
VERTEX
  8
OUTLINE
 10
3.926000
 20
-10.000000
 40
0.000000
 41
0.000000
 42
0.000000
  0
VERTEX
  8
OUTLINE
 10
3.364400
 20
-9.027200
 40
0.000000
 41
0.000000
 42
-1.000000
  0
VERTEX
  8
OUTLINE
 10
6.135700
 20
-7.427200
 40
0.000000
 41
0.000000
 42
0.000000
  0
VERTEX
  8
OUTLINE
 10
6.697300
 20
-8.400000
 40
0.000000
 41
0.000000
 42
0.000000
  0
VERTEX
  8
OUTLINE
 10
10.623300
 20
-1.600000
 40
0.000000
 41
0.000000
 42
0.000000
  0
VERTEX
  8
OUTLINE
 10
9.500000
 20
-1.600000
 40
0.000000
 41
0.000000
 42
-0.999983
  0
VERTEX
  8
OUTLINE
 10
9.500000
 20
1.600000
 40
0.000000
 41
0.000000
 42
0.000000
  0
VERTEX
  8
OUTLINE
 10
10.623300
 20
1.600000
 40
0.000000
 41
0.000000
 42
0.000000
  0
VERTEX
  8
OUTLINE
 10
6.697300
 20
8.400000
 40
0.000000
 41
0.000000
 42
0.000000
  0
VERTEX
  8
OUTLINE
 10
6.135700
 20
7.427200
 40
0.000000
 41
0.000000
 42
-1.000000
  0
VERTEX
  8
OUTLINE
 10
3.364400
 20
9.027200
 40
0.000000
 41
0.000000
 42
0.000000
  0
VERTEX
  8
OUTLINE
 10
3.926000
 20
10.000000
 40
0.000000
 41
0.000000
 42
0.000000
  0
VERTEX
  8
OUTLINE
 10
-3.925900
 20
10.000000
 40
0.000000
 41
0.000000
 42
0.000000
  0
VERTEX
  8
OUTLINE
 10
-3.364300
 20
9.027200
 40
0.000000
 41
0.000000
 42
-1.000000
  0
VERTEX
  8
OUTLINE
 10
-6.135600
 20
7.427200
 40
0.000000
 41
0.000000
 42
0.000000
  0
VERTEX
  8
OUTLINE
 10
-6.697200
 20
8.400000
 40
0.000000
 41
0.000000
 42
0.000000
  0
VERTEX
  8
OUTLINE
 10
-10.623200
 20
1.600000
 40
0.000000
 41
0.000000
 42
0.000000
  0
VERTEX
  8
OUTLINE
 10
-9.500000
 20
1.600000
 40
0.000000
 41
0.000000
 42
-1.000017
  0
VERTEX
  8
OUTLINE
 10
-9.500000
 20
-1.600000
 40
0.000000
 41
0.000000
 42
0.000000
  0
SEQEND
  0
TEXT
  8
SILKC
 10
-2.025000
 20
3.750000
 11
0.000000
 21
0.000000
 40
0.700000
 41
0.857143
 50
0.000000
  7
STANDARD
 71
0
 72
0
  1
SAMSUNG
 73
0
  0
TEXT
  8
SILKC
 10
-1.825000
 20
-4.675000
 11
0.000000
 21
0.000000
 40
0.700000
 41
0.857143
 50
0.000000
  7
STANDARD
 71
0
 72
0
  1
LM301B
 73
0
  0
TEXT
  8
SILKC
 10
-4.417000
 20
-2.036400
 11
0.000000
 21
0.000000
 40
0.700000
 41
0.857143
 50
0.000000
  7
STANDARD
 71
0
 72
0
  1
TS
 73
0
  0
ENDSEC
  0
EOF
